# xmcd
#
# Track frame offsets:
#	150
#	11627
#	20399
#	32562
#	45092
#	55461
#	69410
#	80633
#	91762
#	102098
#	120800
#	132381
#
# Disc length: 1912 seconds
#
# Revision: 1
# Processed by: cddbd v1.4PL0 Copyright (c) Steve Scherf et al.
# Submitted via: audiograbber 1.81.03
#
DISCID=8707760c
DTITLE=Various Country - Country Cruisin
DYEAR=1900
DGENRE=Country
TTITLE0=Sandy Poser - Single Girl
TTITLE1=Roger Miller - England Swings
TTITLE2=Jack Scott - Burning Bridges
TTITLE3=Bobby Bare - 500 Miles Away From Home
TTITLE4=Skeeter Davis - My Last Date With You
TTITLE5=Lynn Anderson - Two Doors Down
TTITLE6=Conway Twitty - Hello Darlin
TTITLE7=Jim Lowe - Four Walls
TTITLE8=Don Gibson - Lonesome Number One
TTITLE9=Bobby Bare - Tequila Sheila
TTITLE10=Dolly Parton - Makin Belive
TTITLE11=SGT Barry Sadler - The Ballad Of The Green Berets
EXTD=
EXTT0=
EXTT1=
EXTT2=
EXTT3=
EXTT4=
EXTT5=
EXTT6=
EXTT7=
EXTT8=
EXTT9=
EXTT10=
EXTT11=
PLAYORDER=
